<?xml version="1.0" encoding="iso-8859-1"?>
<!-- Generator: Adobe Illustrator 19.0.0, SVG Export Plug-In . SVG Version: 6.00 Build 0)  -->
<svg version="1.1" id="Layer_1" xmlns="http://www.w3.org/2000/svg" xmlns:xlink="http://www.w3.org/1999/xlink" x="0px" y="0px"
	 viewBox="0 0 512 512" style="enable-background:new 0 0 512 512;" xml:space="preserve">
<circle style="fill:#FFD15D;" cx="256" cy="256" r="256"/>
<path style="fill:#F9B54C;" d="M512,256c0-5.227-0.176-10.414-0.484-15.563L333.988,62.909c-0.65,0.65,1.374,158.675,1.374,158.675
	l-22.473,5.972c-74.323,3.467-217.372,42.56-218.074,42.56l107.808,107.808c-24.955,8.175-59.757,19.656-60.4,20.299L256,512
	C397.384,512,512,397.384,512,256z"/>
<path style="fill:#66B31B;" d="M333.988,179.738l-18.256-18.256c-22.18-22.18-22.18-58.139,0-80.318l18.256-18.256l18.256,18.256
	c22.18,22.18,22.18,58.139,0,80.318L333.988,179.738z"/>
<path style="fill:#599B13;" d="M352.242,81.163l-18.256-18.256l0,0l-0.41,116.419l0.41,0.41l18.256-18.256
	C374.422,139.304,374.422,103.343,352.242,81.163z"/>
<path style="fill:#E6F3FF;" d="M333.986,233.301c-2.857,0-5.172-2.315-5.172-5.172V121.535c0-2.857,2.315-5.172,5.172-5.172
	s5.172,2.315,5.172,5.172V228.13C339.158,230.986,336.844,233.301,333.986,233.301z"/>
<path style="fill:#CFDBE6;" d="M333.986,116.364c-0.141,0-0.272,0.031-0.41,0.041V233.26c0.138,0.01,0.269,0.041,0.41,0.041
	c2.857,0,5.172-2.315,5.172-5.172V121.535C339.158,118.679,336.844,116.364,333.986,116.364z"/>
<polygon style="fill:#F4E3C3;" points="369.778,398.222 142.222,398.222 142.222,240.237 256,172.528 369.778,240.237 "/>
<polygon style="fill:#FED8B2;" points="369.778,240.237 256,172.528 256,398.222 369.778,398.222 "/>
<polygon style="fill:#935635;" points="256,185.482 389.925,291.745 417.185,270.115 256,142.222 94.815,270.115 122.075,291.745 
	"/>
<polygon style="fill:#804000;" points="417.185,270.115 256,142.222 256,185.484 389.925,291.745 "/>
<rect x="227.556" y="284.444" style="fill:#B97850;" width="56.889" height="113.778"/>
<rect x="256" y="284.444" style="fill:#935635;" width="28.444" height="113.778"/>
<g>
</g>
<g>
</g>
<g>
</g>
<g>
</g>
<g>
</g>
<g>
</g>
<g>
</g>
<g>
</g>
<g>
</g>
<g>
</g>
<g>
</g>
<g>
</g>
<g>
</g>
<g>
</g>
<g>
</g>
</svg>
